<?xml version="1.0" encoding="UTF-8"?>
<svg id="_Слой_2" data-name="Слой 2" xmlns="http://www.w3.org/2000/svg" viewBox="0 0 442 424">
  <defs>
    <style>
      .cls-1 {
        fill: #fff;
      }
    </style>
  </defs>
  <rect class="cls-1" y="367" width="442" height="57" rx="14.84043" ry="14.84043"/>
  <rect class="cls-1" x="-88" y="279" width="233" height="57" rx="14.84043" ry="14.84043" transform="translate(336 279) rotate(90)"/>
  <rect class="cls-1" x="297" y="279" width="233" height="57" rx="14.84043" ry="14.84043" transform="translate(721 -106) rotate(90)"/>
  <path class="cls-1" d="m239.65997,227c-3.81,6.01001-10.51996,10-18.15997,10-5.94,0-11.31-2.41003-15.20001-6.29999-.52997-.53003-1.02997-1.09003-1.5-1.67004-.5-.60999-.95996-1.23999-1.37-1.89996.63.94995,1.35999,1.85999,2.19,2.71997.12.14001.25.27002.38.40002,8.40002,8.39996,22.01001,8.39996,30.40997,0l3.25-3.25Z"/>
  <path class="cls-1" d="m343.41998,155.32996c0,5.5-2.09998,11.01001-6.28998,15.20001l-100.72003,100.72003c-8.39996,8.39996-22.00995,8.39996-30.40997,0-.13-.13-.26001-.26001-.38-.40002-.83002-.85999-1.56-1.77002-2.19-2.71997-2.16998-3.35004-3.42999-7.34003-3.42999-11.63v-3.96002c-.19,1.16003-.28998,2.34003-.28998,3.51001,0,4.21997,1.22998,8.45001,3.71997,12.08002.41003.65997.87,1.28998,1.37,1.89996l-99.64996-99.63995c-8.40002-8.40002-8.40002-22.01001,0-30.41003,4.19995-4.20001,9.69995-6.29999,15.20996-6.29999,5.5,0,11,2.09998,15.20001,6.29999l64.44,64.45001V21.5c0-11.87,9.63-21.5,21.5-21.5,5.94,0,11.31,2.40997,15.20001,6.29999s6.29999,9.26001,6.29999,15.20001v182.34998l63.71997-63.71997c8.40002-8.40002,22.01001-8.40002,30.41003,0,4.19,4.19,6.28998,9.69995,6.28998,15.19995Z"/>
  <path class="cls-1" d="m203.42999,227.13c-2.48999-3.63-3.71997-7.86005-3.71997-12.08002,0-1.16998.09998-2.34998.28998-3.51001v3.96002c0,4.28998,1.26001,8.27997,3.42999,11.63Z"/>
  <path class="cls-1" d="m200,215.5c0,4.28998,1.26001,8.27997,3.42999,11.63-2.48999-3.63-3.71997-7.86005-3.71997-12.08002,0-1.16998.09998-2.34998.28998-3.51001v3.96002Z"/>
  <path class="cls-1" d="m205.62,229.84998l-.82001-.82001c-.5-.60999-.95996-1.23999-1.37-1.89996.63.94995,1.35999,1.85999,2.19,2.71997Z"/>
</svg>