<?xml version="1.0" encoding="UTF-8"?>
<svg xmlns="http://www.w3.org/2000/svg" viewBox="0 0 904.16444 978.89001">
  <defs>
    <style>
      .cls-1 {
        fill: #2c2c2c;
      }

      .cls-2 {
        fill: #1a1a1a;
      }
    </style>
  </defs>
  <g id="_Слой_3" data-name="Слой 3">
    <path class="cls-1" d="m904.16444,848.67999l-68.93005,58.21002-120.05994-65.87-49.45007,15.31995-17.38989,75.06006-172.34003,47.48999-166.21002-58.21002,6.13-38.29999,78.52997-91.91003-70.87-50.56s-99.57996,21.45001-107.23999,38.30005c-7.65997,16.84998,56.67999,67.39996-7.65997,16.84998-64.34003-50.54999-67.40002-151.65997-67.40002-151.65997l85.79004-52.61005,26.03998-77.26001-59.75-77.02997-107.22998,31.58002L3.40443,494.33002s-7.65997-39.35004,0-43.95001c7.66003-4.60004,48.91003-55.26001,48.91003-55.26001l61.37994-76.47998,76.60004-104.17004-134.81-6.13,147.07001-82.72998,65.87-45.95001,52.07996,92.79004,88.85004-103.52002L458.38441,0l117.08997,9.19,5.56006,68.94s148.48999-3.07001,154.62,4.58997c6.13,7.66003,64.33997,75.19,64.33997,75.19l-16.84998,104.05005,36.77002,50.54999,70.46997,78.13,3.05994,95.77997-58.20996,48.28003-12.26001,128.62s33.70007,42.89001,45.96008,61.26996c12.25,18.39001,35.22998,124.09003,35.22998,124.09003Z"/>
  </g>
  <g id="_Слой_1" data-name="Слой 1">
    <path class="cls-2" d="m631.35926,431.60263c.99939,1.33832,1.73633,3.44849,3.03998,3.89178,9.57928,3.25708,14.41516,11.15851,18.19171,19.40823,5.54999,12.1236,10.07367,24.71863,14.95551,37.14398.58057,1.47754.66577,3.14966,1.01428,4.90125-19.16284-47.72867-53.42566-76.19189-103.99097-84.48965-5.77075,5.76343-4.05011,12.77405-4.33685,19.44537,13.47424,4.35806,26.30951,9.72714,37.38416,18.65198,20.26868,16.3342,34.17145,36.84933,40.2558,62.2551,3.61108,15.07831,2.93903,30.40228,1.61078,45.76941-1.34796,15.59497-6.85516,29.76172-14.67303,42.88824-5.3595,8.9989-12.47955,16.96985-19.07489,25.18982-.98596,1.22876-3.3764,1.47437-5.18469,1.8443-1.05304.21552-2.24042-.22601-3.16187-.34534,2.50073,2.47821,5.45001,4.36749,6.9126,7.06335,3.14014,5.78815,5.71509,11.91205,8.15515,18.04431,3.92352,9.86029,7.85095,19.73804,11.21637,29.7959,3.19318,9.54315,8.22137,18.7738,6.54553,29.41632-.26917,1.70941-.86932,3.36664-1.70947,4.93726.51721-9.78894.39813-19.28857-5.53625-28.06299,2.63257,30.22125-5.30109,57.64844-20.599,83.21362,3.95685-11.02991,8.39117-21.91797,11.72339-33.13342,2.79596-9.41077,6.15253-19.2431,5.94611-28.81732-.29645-13.75079-1.28491-27.78583-6.67236-40.98383-4.79059-11.73584-8.94763-23.73029-13.77911-36.66779-11.48346,11.49487-21.89319,21.91498-31.93323,31.96503,8.51965,18.60577,13.86768,37.36639,10.05664,57.0213-3.56085,18.36444-7.47345,36.9093-17.61121,53.26501-1.59784,2.578-2.41193,5.64178-3.66956,8.67694-5.97205,6.31946-12.25305,12.96588-18.53406,19.61224-.4812-.40735-.96234-.8147-1.44354-1.22205,14.34125-13.47925,21.92871-30.57275,26.73358-49.11975,4.75433-18.35162,4.69513-37.06946,3.50922-55.9433-.25806,1.47131-.51617,2.94269-.59912,3.41547-1.49823-5.02771-3.26312-10.9502-5.02802-16.87274-.81885-.07581-1.6377-.15155-2.45654-.22736-3.67163,9.16296-8.6153,18.04083-10.74677,27.54907-4.26947,19.0459-12.02704,36.91199-17.16266,55.62659-3.63831,13.25824-7.54633,26.44275-11.12903,39.71552-.67865,2.51422.67566,5.83685-3.60004,6.60297-10.66342-19.36218-13.13727-41.27106-19.50821-61.9411-2.53732-8.23224-5.69052-16.284-7.99902-24.57507-2.98044-10.70441-5.21335-21.61603-8.14328-32.33588-1.16669-4.26862-3.33633-8.26306-5.31863-13.02972-19.34378,42.7951-10.51556,81.47723,14.04099,118.32782-14.24664-13.3501-22.69662-29.93152-27.45721-48.54803-3.2991-12.90125-6.51221-25.77026-6.23724-39.32556.30261-14.91815,3.3009-29.06927,9.384-42.6593.67868-1.51617,1.00436-4.27246.13943-5.22925-8.21011-9.0816-16.71335-17.89832-25.73843-27.43158-2.84662,4.32025-5.60318,7.65778-7.44611,11.44049-10.50537,21.56311-22.12564,42.6601-27.59601,66.34802-2.20929,9.56671-2.50119,18.81451,1.68234,27.94128,1.1423,2.49194,1.8013,5.20544,2.6821,7.81726-.49121.16394-.98239.32782-1.47357.49176-2.16479-6.72455-4.92563-13.3233-6.3772-20.19849-3.63678-17.22552,3.60287-32.70911,9.4133-48.09033,4.76874-12.62335,11.35431-24.56097,17.15204-36.79431.63913-1.34863,1.34338-2.67224,2.10211-3.95746,5.03964-8.53693,5.09445-8.57391-1.39056-15.99518-15.18164-17.37354-25.07684-37.62451-31.12149-59.62897-3.04666-11.091-4.55267-22.77966-3.19339-34.36285,2.38135-20.29303,7.86124-39.61456,19.70526-56.70581,12.09799-17.4577,27.48193-31.06232,46.78244-40.00684,3.96194-1.83615,8.38974-2.6796,12.621-3.91843,3.98004-1.16519,4.98627-2.91879,4.20737-7.60867-1.83023-11.01971-10.29178-13.11682-18.5657-15.07825-6.81903-1.61655-13.98978-1.84232-21.02579-2.43289-21.19696-1.7793-38.13733,6.74374-53.07391,21.17508-4.45312,4.30246-11.04684,6.3111-16.28961,9.90997-2.38095,1.63443-3.98941,4.4928-5.7084,6.96289-1.46762,2.10889-2.59216,4.45654-5.11517,6.60614-.1915-1.7587-1.06311-3.8006-.46729-5.23151,4.914-11.80179,7.93842-24.4346,16.69754-34.51053,10.03821-11.54715,22.44968-19.31985,37.10876-22.28717,7.50052-1.51828,15.75998.29315,23.62555,1.09708,11.57364,1.18289,23.10178,2.81058,34.75095,3.67499-4.80164-5.29395-11.34644-5.38055-17.46683-6.40338-19.20728-3.20981-37.31161-9.18338-53.45438-20.39551-8.47168-5.88406-14.96204-13.55518-21.26779-21.66287-12.30646-15.82324-19.00107-34.07947-24.77335-52.86078-5.91095-19.2323-13.74713-37.46344-24.77588-54.50189-6.16223-9.52011-12.06906-18.99149-20.33417-26.81094-.83234-.78745-1.74597-1.48895-2.52017-2.14426,4.60519.41818,15.44159,9.25958,27.17645,21.4386,8.17773,8.48727,16.90125,16.44864,25.38098,24.64493.21988-.37909.43979-.75818.65967-1.13727,2.83093-.47116,5.64761-1.07346,8.49615-1.38223,4.08069-.44232,8.19943-.54224,12.27582-1.01385,12.55585-1.45264,23.08908,4.2951,33.58234,9.6853,7.87708,4.04633,15.44812,8.7489,22.88928,13.57004,12.98251,8.41144,21.26123,20.92352,28.39789,34.20935,3.80386,7.08148,6.88049,14.55093,10.42831,21.77509.6199,1.2623,1.94974,2.17596,4.27032,3.03717-.54675-4.68964-.64667-9.48666-1.742-14.04446-1.76865-7.35959-3.65472-14.78293-6.52188-21.75549-2.03491-4.94876-5.16681-9.77533-8.87042-13.6391-7.2066-7.51825-12.13544-16.05624-15.36179-25.88925-4.16605-12.69705-8.18155-25.51178-13.49655-37.73914-3.46771-7.97766-8.98981-15.09396-13.84125-22.43102-7.19238-10.87738-16.06665-20.23775-26.79077-27.68047-2.90503-2.01613-5.5979-5.37477-10.0134-3.9063-.16452.05473-.5097-.46242-.78238-.6996-3.18408-2.76979-6.37039-5.53699-9.68231-8.41452,14.87588,3.52046,29.58676,7.15024,43.37979,14.23557,18.70703,9.60957,32.35159,24.02895,42.64633,41.97256,5.79672,10.10361,6.89764,21.51337,8.72171,32.7189,1.49988,9.21426,3.06729,18.42355,4.92075,27.57108.69135,3.41214,2.27191,6.64865,6.10336,7.21762,0-18.67984.55557-37.33459-.15952-55.94046-.68671-17.86829-6.77982-34.18523-18.32816-48.05185-3.97342-4.77104-8.85498-8.78577-14.26199-14.06386,26.82849,12.42712,40.04938,33.64375,46.47403,60.51537.17819-.81589.47867-1.62616.51648-2.44849.67804-14.74606,1.25912-29.49686,1.99911-44.2397.53909-10.74097,1.58548-21.467,1.75607-32.20999.05664-3.56808-1.36191-7.45134-3.05017-10.69981-4.76678-9.17187-12.16849-16.07695-20.66486-21.77536-5.69058-3.81659-11.58975-7.3222-17.01474-11.72217,14.70401,1.37267,28.04556,5.87488,39.64825,15.28728,11.30066,9.1674,18.04346,21.28271,23.55746,35.19067,13.18372-29.82034,32.22076-51.46175,68.26343-52.40007-3.72394,2.10698-6.5517,3.90576-9.54468,5.36578-12.84729,6.26701-23.93018,14.8604-31.89648,26.67462-3.26019,4.83498-5.79584,11.16862-5.97137,16.90285-.87018,28.42247-.8476,56.87239-1.10779,85.31294-.00983,1.07468.30981,2.15237.47595,3.22867.61023.03934,1.22052.07867,1.83075.11801.33868-3.22784.67743-6.45569,1.01611-9.68353-.63257-.00735-1.2652-.01471-1.89783-.02206-.04108,3.51074-1.34155,7.20154,1.64911,10.27881.65741.02216,1.31476.04431,1.97211.06647.95312-11.77661,1.90625-23.55322,2.87689-35.54634,1,4.80788,1.96576,9.45103,2.84949,13.69978,5.09216-9.66132,9.41113-19.87509,15.51538-28.87846,6.31122-9.30865,15.22314-16.32472,26.00128-20.61032-7.93256,6.2912-12.62323,14.97237-17.97638,23.14874-7.68622,11.73979-11.52148,24.51915-11.75037,38.6244-.24121,14.86224-1.26996,29.71094-1.88342,44.56845-.15027,3.63965-.0224,7.29077-.0224,10.78351,6.50775-1.91498,7.94904-7.72943,9.03833-14.15308,2.16205-12.75067,3.82007-25.69928,7.43671-38.05371,2.68225-9.16266,7.9599-17.60358,12.41498-26.19296,2.18677-4.21606,4.89014-8.22731,7.81482-11.97618,2.08435-2.67178,4.8382-4.85661,7.44714-7.07808,15.43188-13.13966,33.09155-21.53004,53.12433-24.91977,1.91913-.32471,3.64703-1.66623,5.54272-2.29871.74054-.24706,1.69934.16003,3.94379.44507-3.89502,2.26625-6.55249,3.99144-9.36176,5.41742-16.0968,8.17055-27.41492,20.99187-36.68378,36.21252-11.31439,18.57974-17.90271,39.10159-25.95441,59.0629-2.85974,7.08951-7.53003,13.55994-12.02686,19.8457-4.24835,5.93835-9.72266,11.00327-13.92932,16.96619-2.14215,3.0365-3.0769,7.11975-3.86328,10.87521-1.43634,6.85953-2.35663,13.82712-3.49219,20.74966.56232.20154,1.12469.40311,1.68701.60464,2.54083-3.77496,5.20941-7.47095,7.59943-11.33914,8.5105-13.77402,17.50085-27.25284,30.02429-37.71124,14.80048-12.36008,31.54321-21.59378,49.94385-27.41391,4.01965-1.27145,8.92096-1.01001,13.14471-.13852,11.19922,2.31085,20.83807,1.45767,29.21136-7.79883,7.98859-8.83115,17.09064-16.66452,25.8385-24.79095,1.66443-1.5462,3.96033-2.41275,5.96484-3.59286l1.09204,1.06265c-1.45959,2.33401-2.61462,4.9418-4.42755,6.95816-12.92407,14.37473-21.39398,31.22046-27.79376,49.2594-4.87238,13.73376-9.85059,27.43021-14.67883,41.17938-5.96436,16.98431-15.59918,31.92017-27.59723,44.96201-12.47131,13.5563-28.45489,21.5401-46.71387,25.64755-12.4809,2.80768-25.06775,4.05508-37.62756,5.88397-.88739.12921-1.65131,1.10654-3.4679,2.39594,6.87384.62003,12.27856.91107,17.62628,1.62756,14.7251,1.97293,29.73126,2.91791,44.05206,6.53998,14.66602,3.70941,26.24084,13.5697,36.34485,24.82761,3.17413,3.53665,6.60107,6.84961,9.71729,10.43442,5.69336,6.54959,11.24127,13.22556,16.84991,19.84882-.38275.38617-.76544.77237-1.14813,1.15854-1.04517-.84921-2.40479-1.49945-3.08722-2.57812-7.60571-12.02151-20.00232-16.36826-32.51434-20.64835-3.40729-1.16556-6.83118-2.56726-9.86499-4.47031-4.12762-2.58932-5.53058.71689-7.61475,2.83423l-.65314-.95132c-.09088.1311-.1817.26224-.27258.39334.31372.18033.62738.36066.9411.54099Zm-45.79358,60.858c-.34619-1.00525-.69232-2.01044-1.03857-3.01569-.85785-2.63635-1.7157-5.27271-2.57355-7.90906-.44641.19067-.89282.38129-1.33923.57196,1.06519,2.63312,2.13037,5.26617,3.1958,7.89819.30481,1.02765.60968,2.05536.91449,3.08301.91449,2.46863,1.82898,4.93719,2.74353,7.40582.61536,5.43756,1.23065,10.87518,1.84601,16.31274l1.87244-.34937c-1.2702-5.29077-2.54047-10.58148-3.8136-15.8692-.60229-2.70923-1.20459-5.4184-1.80731-8.12842Zm19.6676-295.95297c-13.60095,12.98441-19.72052,29.67728-24.09137,47.23856,3.30603-6.3931,6.09851-13.04517,9.36536-19.45551,2.71112-5.31989,6.13568-10.27234,8.95197-15.5437,2.13226-3.99094,3.8042-8.22778,5.68988-12.34393.23102-.11392.46204-.22783.69305-.34175-.20294.14877-.40594.29755-.60889.44633Zm-38.56897,178.78461c.22748.33377.45496.66754.68243,1.00128,6.5152-1.21222,13.03302-2.41037,19.54504-3.63922,28.35522-5.35052,49.32452-21.48282,63.81116-45.72861,9.53552-15.95947,17.33331-32.95816,25.87738-49.50797,1.06897-2.07065,1.94269-4.2421,3.2793-7.18732-1.52075.59717-2.22205.66995-2.61377,1.05643-6.74652,6.65527-13.62628,13.18692-20.13654,20.06769-14.70483,15.54147-29.30585,31.18335-43.79028,46.93048-11.21234,12.18976-24.26117,22.00464-38.23822,30.72821-2.95917,1.84686-5.61884,4.17346-8.4165,6.27902Zm-98.67609,1.6922c.22702-.51865.45407-1.03729.68112-1.55594-3.06903-2.2858-6.02979-4.73691-9.22507-6.82999-17.96484-11.7681-34.18723-25.3465-48.26578-41.7818-13.50986-15.77136-28.35236-30.40558-42.71609-45.43732-2.8605-2.99353-6.20453-5.52505-9.32556-8.26962,4.7551,12.38669,9.83301,24.26392,15.65115,35.76672,8.96829,17.73083,19.91211,34.03012,36.25656,46.03384,12.90002,9.47403,27.87335,14.18137,42.89093,18.754,4.59518,1.39917,9.36362,2.22934,14.05273,3.3201Zm28.54504,88.16159c-6.93695-1.62146-10.26111-.73163-14.22629,4.211-2.99533,3.7337-5.91187,7.6214-8.22391,11.79486-6.00415,10.83807-10.54364,22.21179-10.28415,34.91736.10965,5.3681,3.04541,10.28961,6.96033,10.8609,3.68848.53833,7.6127.69525,11.25644.03876,6.7865-1.22272,6.99396-2.35199,7.69095-9.36359,1.29318-13.00952,3.02661-25.97656,4.67267-38.9491.5766-4.54449,1.43512-9.05316,2.15396-13.51019Zm-33.28442-1.94855c-1.62088,1.49744-3.12335,2.50409-4.13135,3.87451-12.7413,17.32288-18.93265,36.80731-18.77356,58.27222.01111,1.49701,1.46158,2.9834,2.24271,4.47473.53333-.08105,1.06665-.16205,1.59995-.2431,4.16629-22.01416,9.50851-43.64832,19.57477-63.77185.22842-.45667-.22546-1.25464-.51251-2.60651Zm80.25922-106.974c.65765.04651,1.31531.09299,1.97296.13947.11328-10.98917.27661-21.97855.23279-32.96707-.00311-.7738-1.53522-1.5415-3.36835-3.26166-.97083,13.07721-4.96814,24.71207,1.1626,36.08926Zm-38.15204,113.71039c-.53525-.04083-1.0705-.0816-1.60574-.12238-4.03448,10.07843-6.57907,47.77502-3.57593,51.03815,1.71954-16.89642,3.45062-33.90613,5.18167-50.91577Zm-35.85168,89.36438q-6.87387-1.94769-9.76727,1.15784c6.439,3.914,7.71255,3.81696,9.76727-1.15784Zm-.6843,114.39575l-5.9079,15.16956c.526.19073,1.05203.38147,1.57803.57214,2.98871-4.70276,6.16867-9.33844,4.32986-15.7417Zm153.16867-80.19751c1.28027-5.02332,5.04993-9.35095,2.55865-15.18286-3.31921,4.88055-6.07129,9.37482-2.55865,15.18286Zm-120.82284-440.46712c-.63995.03072-1.27991.06142-1.91986.09213.51465,9.66037,1.02927,19.32072,1.54388,28.98109l1.44058-.06573c-.25668-9.67342,1.70926-19.44331-1.06461-29.00749Z"/>
    <path class="cls-1" d="m143.67382,892.13995c-.90627-.26294-1.81253-.52582-3.76036-1.09094h4.06094c-.1002.36365-.20039.72729-.30058,1.09094Z"/>
    <path class="cls-1" d="m566.66431,375.29227c2.79767-2.10556,5.45734-4.43216,8.4165-6.27902,13.97705-8.72357,27.02588-18.53845,38.23822-30.72821,14.48444-15.74713,29.08545-31.38901,43.79028-46.93048,6.51025-6.88077,13.39001-13.41241,20.13654-20.06769.39172-.38647,1.09302-.45926,2.61377-1.05643-1.33661,2.94522-2.21033,5.11667-3.2793,7.18732-8.54407,16.5498-16.34186,33.54849-25.87738,49.50797-14.48663,24.24579-35.45593,40.37808-63.81116,45.72861-6.51202,1.22885-13.02985,2.427-19.54504,3.63922-.22748-.33374-.45496-.66751-.68243-1.00128Z"/>
    <path class="cls-1" d="m467.98823,376.98447c-4.68912-1.09076-9.45755-1.92093-14.05273-3.3201-15.01758-4.57263-29.99091-9.27997-42.89093-18.754-16.34445-12.00372-27.28827-28.30301-36.25656-46.03384-5.81815-11.50281-10.89606-23.38004-15.65115-35.76672,3.12103,2.74457,6.46506,5.27609,9.32556,8.26962,14.36374,15.03174,29.20624,29.66595,42.71609,45.43732,14.07855,16.4353,30.30093,30.0137,48.26578,41.7818,3.19528,2.09308,6.15604,4.54419,9.22507,6.82999-.22705.51865-.4541,1.03729-.68112,1.55594Z"/>
    <path class="cls-1" d="m496.53327,465.14606c-.71884,4.45703-1.57736,8.9657-2.15396,13.51019-1.64606,12.97253-3.37949,25.93958-4.67267,38.9491-.69699,7.0116-.90445,8.14087-7.69095,9.36359-3.64374.65649-7.56796.49957-11.25644-.03876-3.91492-.57129-6.85068-5.4928-6.96033-10.8609-.25949-12.70557,4.28-24.07928,10.28415-34.91736,2.31204-4.17346,5.22858-8.06116,8.22391-11.79486,3.96518-4.94263,7.28934-5.83246,14.22629-4.211Z"/>
    <path class="cls-1" d="m463.24885,463.19751c.28705,1.35187.74094,2.14984.51251,2.60651-10.06625,20.12354-15.40848,41.75769-19.57477,63.77185-.53329.08105-1.06662.16205-1.59995.2431-.78113-1.49133-2.2316-2.97772-2.24271-4.47473-.15909-21.4649,6.03226-40.94934,18.77356-58.27222,1.008-1.37042,2.51047-2.37708,4.13135-3.87451Z"/>
    <path class="cls-1" d="m543.50806,356.22351c-6.13074-11.3772-2.13342-23.01205-1.1626-36.08926,1.83313,1.72015,3.36523,2.48785,3.36835,3.26166.04382,10.98853-.11951,21.97791-.23279,32.96707-.65765-.04648-1.31531-.09296-1.97296-.13947Z"/>
    <path class="cls-1" d="m605.14026,196.3918c-1.87683,4.12743-3.54877,8.36427-5.68103,12.35521-2.81628,5.27136-6.24084,10.22382-8.95197,15.5437-3.26685,6.41034-6.05933,13.06241-9.36536,19.45551,4.37085-17.56128,10.49042-34.25415,24.09137-47.23856,0,0-.09302-.11584-.09302-.11586Z"/>
    <path class="cls-1" d="m505.35602,469.9339c-1.73105,17.00964-3.46213,34.01935-5.18167,50.91577-3.00314-3.26312-.45856-40.95972,3.57593-51.03815.53525.04077,1.0705.08154,1.60574.12238Z"/>
    <path class="cls-1" d="m469.50434,559.29828c-2.05472,4.97479-3.32828,5.07184-9.76727,1.15784q2.8934-3.10553,9.76727-1.15784Z"/>
    <path class="cls-1" d="m468.82004,673.69403c1.83881,6.40326-1.34116,11.03894-4.32986,15.7417-.526-.19067-1.05203-.38141-1.57803-.57214l5.9079-15.16956Z"/>
    <path class="cls-1" d="m621.98871,593.49652c-3.51263-5.80804-.76056-10.30231,2.55865-15.18286,2.49127,5.83191-1.27838,10.15955-2.55865,15.18286Z"/>
    <path class="cls-1" d="m501.16587,153.0294c2.77386,9.56418.80792,19.33408,1.06461,29.00749l-1.44058.06573c-.51462-9.66037-1.02924-19.32072-1.54388-28.98109.63995-.03072,1.27991-.06142,1.91986-.09213Z"/>
    <path class="cls-1" d="m587.37586,500.586c1.27026,5.29077,2.54053,10.58148,3.81073,15.87225l-1.87244.34937c-.61536-5.43756-1.23065-10.87518-1.84601-16.31274,0,0-.09222.09113-.09229.09113Z"/>
    <path class="cls-1" d="m583.80988,490.00714c-1.06519-2.63312-2.13037-5.26617-3.19556-7.89929.44641-.19067.89282-.38129,1.33923-.57196.85785,2.63635,1.7157,5.27271,2.57361,7.90912-.23456.19318-.47363.38049-.71729.56213Z"/>
    <path class="cls-1" d="m587.46815,500.49487c-.91455-2.46863-1.82904-4.93719-2.74353-7.40582.28052-.20917.56104-.4184.84149-.62756.60229,2.70917,1.20459,5.41833,1.80835,8.12604.00146-.00153.09369-.09265.09369-.09265Z"/>
    <path class="cls-1" d="m584.72462,493.08905c-.30481-1.02765-.60968-2.05536-.91461-3.08246.24353-.18109.4826-.36841.71722-.56158.34613,1.00519.69226,2.01038,1.0387,3.01605-.28027.20959-.56079.41882-.84131.62799Z"/>
    <path class="cls-1" d="m605.23328,196.50764c.20294-.14877.40594-.29755.60889-.44632-.23102.11392-.46204.22783-.69751.33612-.00439-.00563.08862.11021.08862.1102Z"/>
    <path class="cls-1" d="m631.35926,431.60263c-.31372-.18033-.62738-.36066-.9411-.54099.09088-.1311.1817-.26224.27258-.39334l.65314.95132.01538-.017Z"/>
  </g>
</svg>